<svg width="300" height="300" viewBox="0 0 300 300" fill="none" xmlns="http://www.w3.org/2000/svg">
<g clip-path="url(#clip0)">
<path d="M132.968 234.344C121.273 245.152 105.097 247.573 90.7494 240.664C85.5627 238.167 81.1857 234.718 77.7591 230.587L58.2234 273.796C57.3345 275.762 58.3271 277.244 58.7947 277.789C59.2623 278.334 60.5754 279.541 62.6531 278.963L76.875 275.004C78.4957 274.554 80.134 274.336 81.7494 274.336C88.5644 274.336 94.9787 278.194 98.0672 284.586L104.49 297.878C105.428 299.82 107.188 300.014 107.92 299.999C108.639 299.99 110.406 299.757 111.294 297.791L142.368 229.058C138.954 230.041 135.721 231.8 132.968 234.344Z" fill="#373737" fill-opacity="0.07"/>
<path d="M241.776 273.796L222.24 230.587C218.814 234.718 214.437 238.167 209.25 240.664C194.902 247.573 178.727 245.152 167.031 234.344C164.279 231.8 161.046 230.041 157.63 229.058L188.704 297.791C189.593 299.757 191.36 299.99 192.078 299.999C192.81 300.014 194.57 299.82 195.508 297.878L201.931 284.586C205.019 278.194 211.434 274.336 218.249 274.336C219.864 274.336 221.503 274.554 223.123 275.004L237.345 278.963C239.423 279.541 240.737 278.335 241.204 277.789C241.672 277.243 242.665 275.761 241.776 273.796Z" fill="#373737" fill-opacity="0.07"/>
<path d="M257.122 121.753C240.897 110.643 235.863 88.5855 245.661 71.5365C251.55 61.2879 248.485 51.1605 243.653 45.1002C238.82 39.0416 229.628 33.8004 218.327 37.2604C199.528 43.0184 179.141 33.2027 171.92 14.9121C167.579 3.91758 157.75 0 150 0C142.25 0 132.421 3.91758 128.08 14.9127C120.859 33.2039 100.474 43.0184 81.6732 37.2609C70.3711 33.8016 61.1807 39.0416 56.3473 45.1008C51.515 51.1611 48.45 61.2873 54.3392 71.5371C64.1373 88.5855 59.1029 110.644 42.8783 121.753C33.1248 128.432 31.493 138.886 33.2168 146.442C34.9406 153.998 40.9476 162.708 52.633 164.494C72.0709 167.463 86.1768 185.152 84.7477 204.763C83.8875 216.553 91.0436 224.347 98.0262 227.711C105.009 231.073 115.564 231.809 124.246 223.786C131.466 217.114 140.735 213.776 149.999 213.776C159.268 213.776 168.531 217.112 175.753 223.786C184.435 231.81 194.991 231.074 201.973 227.711C208.956 224.348 216.111 216.554 215.252 204.764C213.823 185.152 227.929 167.464 247.366 164.494C259.052 162.708 265.058 153.998 266.783 146.442C268.507 138.885 266.874 128.431 257.122 121.753ZM150 196.83C107.476 196.83 72.8795 162.234 72.8795 119.709C72.8795 77.185 107.475 42.5883 150 42.5883C192.525 42.5883 227.12 77.1844 227.12 119.709C227.12 162.233 192.524 196.83 150 196.83Z" fill="#373737" fill-opacity="0.07"/>
<path d="M149.999 56.9678C115.403 56.9678 87.2578 85.1139 87.2578 119.709C87.2578 154.305 115.403 182.451 149.999 182.451C184.596 182.451 212.741 154.305 212.741 119.709C212.741 85.1139 184.595 56.9678 149.999 56.9678ZM182.153 113.626L143.105 142.147C141.865 143.052 140.378 143.531 138.864 143.531C138.474 143.531 138.082 143.499 137.692 143.435C135.788 143.12 134.09 142.053 132.98 140.473L121.3 123.843C119.018 120.593 119.803 116.109 123.052 113.827C126.301 111.544 130.785 112.328 133.068 115.578L140.538 126.215L173.672 102.015C176.879 99.6738 181.377 100.372 183.718 103.58C186.06 106.786 185.359 111.284 182.153 113.626Z" fill="#373737" fill-opacity="0.07"/>
</g>
<defs>
<clipPath id="clip0">
<rect width="300" height="300" fill="white"/>
</clipPath>
</defs>
</svg>
