<svg width="300" height="300" viewBox="0 0 300 300" fill="none" xmlns="http://www.w3.org/2000/svg">
<g clip-path="url(#clip0)">
<path d="M73.407 300H238.287C245.103 300 250.628 294.475 250.628 287.661V131.165C250.628 131.165 93.8805 287.842 89.4745 291.728C82.3883 297.885 73.407 300 73.407 300Z" fill="#373737" fill-opacity="0.07"/>
<path d="M246.574 9.33609C247.943 9.33609 249.294 9.43451 250.628 9.61761C250.628 4.30527 246.32 0 241.01 0H132.349V66.1652C132.349 82.4821 119.119 95.7092 102.802 95.7092H36.4609V206.962L225.863 17.9054C231.397 12.3802 238.754 9.33609 246.574 9.33609Z" fill="#373737" fill-opacity="0.07"/>
<path d="M114.757 66.1652V0L36.4609 78.1197H102.802C109.406 78.1197 114.757 72.7684 114.757 66.1652Z" fill="#373737" fill-opacity="0.07"/>
<path d="M30.6885 260.028C29.5921 258.934 28.5896 257.776 27.6672 256.567C26.9646 255.645 26.31 254.693 25.7126 253.711L18.8713 273.793L14.5477 286.491C13.4743 289.641 14.2662 292.726 16.1018 294.923C18.7981 297.828 22.9248 298.277 25.6668 297.624L58.4312 286.507C56.3141 285.182 54.3274 283.614 52.5146 281.806L30.6885 260.028Z" fill="#373737" fill-opacity="0.07"/>
<path d="M282.481 57.9117C282.481 57.9117 262.429 38.2049 254.549 31.0226C248.685 25.9895 241.257 26.9668 236.852 31.723L223.48 45.1378L267.645 89.2044C267.666 89.225 267.682 89.2479 267.702 89.2685L268.217 88.7558L282.484 74.5147C287.073 69.9325 287.073 62.4939 282.481 57.9117Z" fill="#373737" fill-opacity="0.07"/>
<path d="M211.029 57.5638L186.722 81.8275L230.921 125.926C230.933 125.938 230.939 125.947 230.949 125.956L255.258 101.69C255.247 101.678 255.233 101.669 255.222 101.656L211.029 57.5638Z" fill="#373737" fill-opacity="0.07"/>
<path d="M81.1844 273.141C83.416 272.39 85.5103 271.129 87.2887 269.353L218.5 138.38C218.5 138.38 218.5 138.38 218.497 138.377L174.273 94.2535L43.1099 225.181C41.3132 226.971 40.0429 229.088 39.2876 231.338C37.4405 236.856 38.7108 243.187 43.1122 247.577L64.9384 269.355C68.026 272.436 72.0703 273.976 76.1124 273.976C77.829 273.976 79.5433 273.697 81.1844 273.141Z" fill="#373737" fill-opacity="0.07"/>
</g>
<defs>
<clipPath id="clip0">
<rect width="300" height="300" fill="white"/>
</clipPath>
</defs>
</svg>
