<svg width="300" height="300" viewBox="0 0 300 300" fill="none" xmlns="http://www.w3.org/2000/svg">
<g clip-path="url(#clip0)">
<path d="M24.7353 216.53V86.2415C18.2894 85.9874 12.0294 85.7827 6.05882 85.5997C2.74118 85.4985 0 88.1603 0 91.4797V243.239C0 246.364 2.44059 248.944 5.56235 249.112C36.6571 250.787 77.6247 252.574 116.224 261.923C87.4177 239.723 55.8882 229.694 31.9353 225.2C27.7588 224.418 24.7353 220.771 24.7353 216.53Z" fill="#373737" fill-opacity="0.07"/>
<path d="M275.265 85.1714V216.53C275.265 220.771 272.242 224.418 268.065 225.201C244.112 229.695 212.583 239.724 183.777 261.924C222.316 252.588 263.179 250.797 294.438 249.113C297.56 248.944 300.001 246.365 300.001 243.239V90.8384C300.001 87.5943 297.376 84.9608 294.132 84.9561C288.914 84.9484 282.5 84.9973 275.265 85.1714Z" fill="#373737" fill-opacity="0.07"/>
<path d="M42.3826 43.9583V209.324C71.5532 215.736 108.918 229.718 141.177 260.007V86.4653C120.706 60.7289 82.759 44.33 49.3543 38.1759C45.7296 37.5083 42.3826 40.2724 42.3826 43.9583ZM115.7 178.689C113.162 182.841 107.732 184.159 103.571 181.618C98.8002 178.707 86.5885 171.748 76.1237 169.977C71.3179 169.165 68.0826 164.612 68.8943 159.807C69.7061 155.001 74.259 151.765 79.0649 152.577C92.0708 154.771 105.765 162.277 112.765 166.56C116.924 169.101 118.236 174.53 115.7 178.689ZM115.9 122.907C113.117 126.905 107.604 127.879 103.618 125.101C97.8708 121.101 87.2237 115.759 76.1237 113.883C71.3179 113.071 68.0826 108.518 68.8943 103.712C69.7061 98.9065 74.259 95.6712 79.0649 96.483C93.0296 98.8418 106.118 105.336 113.706 110.624C117.706 113.407 118.688 118.907 115.9 122.907Z" fill="#373737" fill-opacity="0.07"/>
<path d="M250.647 38.1768C217.404 44.3079 179.276 60.6773 158.824 86.4656V260.007C191.082 229.718 228.447 215.736 257.618 209.324V43.9597C257.618 40.2738 254.271 37.5085 250.647 38.1768ZM223.877 169.977C213.412 171.748 201.2 178.707 196.429 181.618C192.268 184.16 186.838 182.84 184.3 178.689C181.765 174.53 183.077 169.101 187.235 166.56C194.235 162.277 207.929 154.771 220.935 152.577C225.741 151.76 230.294 155.001 231.106 159.807C231.918 164.613 228.682 169.166 223.877 169.977ZM223.877 113.883C212.777 115.76 202.129 121.101 196.382 125.101C192.4 127.877 186.887 126.909 184.1 122.907C181.312 118.907 182.294 113.407 186.294 110.624C193.882 105.336 206.971 98.842 220.935 96.4832C225.741 95.6656 230.294 98.9068 231.106 103.713C231.918 108.519 228.682 113.071 223.877 113.883Z" fill="#373737" fill-opacity="0.07"/>
</g>
<defs>
<clipPath id="clip0">
<rect width="300" height="300" fill="white"/>
</clipPath>
</defs>
</svg>
