<svg width="1920" height="1080" viewBox="0 0 1920 1080" fill="none" xmlns="http://www.w3.org/2000/svg">
<g opacity="0.3">
<g clip-path="url(#clip0)">
<path d="M1346.9 999.404L1346.23 994.629L1370.11 991.273L1369.44 986.498L1350.33 989.183L1349.66 984.407L1344.89 985.078L1344.22 980.303L1348.99 979.632L1348.32 974.857L1372.2 971.501L1372.87 976.277L1353.77 978.961L1354.44 983.736L1373.54 981.052L1374.21 985.827L1378.99 985.156L1379.66 989.931L1374.88 990.602L1375.55 995.378L1346.9 999.404ZM1389.88 993.364L1389.21 988.589L1384.43 989.26L1382.42 974.934L1387.19 974.263L1386.52 969.488L1415.17 965.461L1415.85 970.236L1391.97 973.592L1393.98 987.918L1417.86 984.562L1418.53 989.337L1389.88 993.364ZM1423.31 988.666L1418.61 955.24L1428.16 953.897L1429.5 963.448L1448.6 960.763L1449.27 965.539L1454.05 964.868L1456.73 983.969L1447.18 985.311L1444.5 966.21L1430.17 968.223L1432.86 987.324L1423.31 988.666ZM1466.28 982.626L1465.61 977.851L1460.84 978.522L1458.82 964.196L1463.6 963.525L1462.93 958.75L1486.8 955.394L1487.47 960.17L1492.25 959.499L1494.26 973.824L1489.49 974.495L1490.16 979.271L1466.28 982.626ZM1470.39 977.18L1484.71 975.167L1482.7 960.841L1468.37 962.854L1470.39 977.18ZM1504.48 977.257L1503.81 972.482L1499.04 973.153L1497.02 958.827L1501.8 958.156L1501.13 953.381L1525 950.026L1525.68 954.801L1530.45 954.13L1532.46 968.455L1527.69 969.127L1528.36 973.902L1504.48 977.257ZM1508.59 971.811L1522.91 969.798L1520.9 955.472L1506.58 957.485L1508.59 971.811ZM1542.69 971.888L1542.02 967.113L1551.57 965.771L1548.21 941.895L1543.43 942.566L1542.76 937.791L1557.09 935.777L1561.12 964.429L1570.67 963.086L1571.34 967.862L1542.69 971.888ZM1580.89 966.519L1580.22 961.744L1575.44 962.415L1574.77 957.64L1579.55 956.969L1578.87 952.194L1597.98 949.509L1597.3 944.734L1578.2 947.419L1577.53 942.643L1601.41 939.288L1602.08 944.063L1606.86 943.392L1609.54 962.493L1580.89 966.519ZM1584.99 961.073L1599.32 959.06L1598.65 954.285L1584.32 956.298L1584.99 961.073Z" fill="#B1ECBB" fill-opacity="0.6"/>
<path d="M1767.12 940.346L1766.45 935.571L1790.33 932.215L1789.66 927.44L1770.56 930.124L1769.89 925.349L1765.11 926.02L1764.44 921.245L1769.21 920.574L1768.54 915.799L1792.42 912.443L1793.09 917.218L1773.99 919.903L1774.66 924.678L1793.76 921.993L1794.43 926.769L1799.21 926.098L1799.88 930.873L1795.1 931.544L1795.77 936.319L1767.12 940.346ZM1810.1 934.306L1809.43 929.531L1804.65 930.202L1802.64 915.876L1807.42 915.205L1806.74 910.43L1835.4 906.403L1836.07 911.178L1812.19 914.534L1814.2 928.859L1838.08 925.504L1838.75 930.279L1810.1 934.306ZM1843.53 929.608L1838.83 896.181L1848.38 894.839L1849.72 904.39L1868.82 901.705L1869.49 906.48L1874.27 905.809L1876.95 924.91L1867.4 926.252L1864.72 907.151L1850.39 909.165L1853.08 928.266L1843.53 929.608ZM1886.5 923.568L1885.83 918.793L1881.06 919.464L1879.04 905.138L1883.82 904.467L1883.15 899.692L1907.03 896.336L1907.7 901.111L1912.47 900.44L1914.48 914.766L1909.71 915.437L1910.38 920.212L1886.5 923.568ZM1890.61 918.122L1904.93 916.108L1902.92 901.782L1888.6 903.796L1890.61 918.122ZM1924.71 918.199L1924.04 913.424L1919.26 914.095L1917.25 899.769L1922.02 899.098L1921.35 894.323L1945.23 890.967L1945.9 895.742L1950.67 895.071L1952.69 909.397L1947.91 910.068L1948.58 914.843L1924.71 918.199ZM1928.81 912.753L1943.14 910.739L1941.12 896.414L1926.8 898.427L1928.81 912.753ZM1962.91 912.83L1962.24 908.055L1971.79 906.713L1968.43 882.836L1963.66 883.507L1962.99 878.732L1977.31 876.719L1981.34 905.37L1990.89 904.028L1991.56 908.803L1962.91 912.83ZM2001.11 907.461L2000.44 902.686L1995.66 903.357L1994.99 898.582L1999.77 897.911L1999.1 893.135L2018.2 890.451L2017.53 885.676L1998.43 888.36L1997.75 883.585L2021.63 880.229L2022.3 885.005L2027.08 884.333L2029.76 903.434L2001.11 907.461ZM2005.21 902.015L2019.54 900.001L2018.87 895.226L2004.54 897.24L2005.21 902.015Z" fill="#B1ECBB" fill-opacity="0.6"/>
<path d="M507.347 1117.4L506.676 1112.62L530.553 1109.26L529.881 1104.49L510.78 1107.17L510.109 1102.4L505.334 1103.07L504.663 1098.29L509.438 1097.62L508.767 1092.85L532.643 1089.49L533.314 1094.27L514.213 1096.95L514.885 1101.73L533.986 1099.04L534.657 1103.82L539.432 1103.15L540.103 1107.92L535.328 1108.59L535.999 1113.37L507.347 1117.4ZM550.325 1111.36L549.654 1106.58L544.878 1107.25L542.865 1092.93L547.64 1092.25L546.969 1087.48L575.621 1083.45L576.292 1088.23L552.415 1091.58L554.429 1105.91L578.305 1102.55L578.976 1107.33L550.325 1111.36ZM583.751 1106.66L579.054 1073.23L588.604 1071.89L589.946 1081.44L609.047 1078.75L609.718 1083.53L614.494 1082.86L617.178 1101.96L607.628 1103.3L604.943 1084.2L590.617 1086.21L593.302 1105.32L583.751 1106.66ZM626.729 1100.62L626.057 1095.84L621.282 1096.51L619.269 1082.19L624.044 1081.52L623.373 1076.74L647.249 1073.39L647.92 1078.16L652.696 1077.49L654.709 1091.82L649.934 1092.49L650.605 1097.26L626.729 1100.62ZM630.833 1095.17L645.158 1093.16L643.145 1078.83L628.819 1080.85L630.833 1095.17ZM664.931 1095.25L664.259 1090.47L659.484 1091.14L657.471 1076.82L662.246 1076.15L661.575 1071.37L685.451 1068.02L686.122 1072.79L690.898 1072.12L692.911 1086.45L688.136 1087.12L688.807 1091.89L664.931 1095.25ZM669.035 1089.8L683.36 1087.79L681.347 1073.46L667.021 1075.48L669.035 1089.8ZM703.133 1089.88L702.461 1085.1L712.012 1083.76L708.656 1059.89L703.881 1060.56L703.21 1055.78L717.536 1053.77L721.562 1082.42L731.113 1081.08L731.784 1085.85L703.133 1089.88ZM741.335 1084.51L740.663 1079.74L735.888 1080.41L735.217 1075.63L739.992 1074.96L739.321 1070.19L758.422 1067.5L757.751 1062.73L738.65 1065.41L737.979 1060.63L761.855 1057.28L762.526 1062.05L767.302 1061.38L769.986 1080.48L741.335 1084.51ZM745.439 1079.06L759.764 1077.05L759.093 1072.28L744.768 1074.29L745.439 1079.06Z" fill="#B1ECBB" fill-opacity="0.6"/>
<path d="M927.57 1058.34L926.899 1053.56L950.775 1050.21L950.104 1045.43L931.003 1048.12L930.332 1043.34L925.557 1044.01L924.886 1039.24L929.661 1038.56L928.99 1033.79L952.866 1030.43L953.537 1035.21L934.436 1037.89L935.107 1042.67L954.208 1039.98L954.879 1044.76L959.655 1044.09L960.326 1048.86L955.55 1049.54L956.222 1054.31L927.57 1058.34ZM970.547 1052.3L969.876 1047.52L965.101 1048.19L963.088 1033.87L967.863 1033.2L967.192 1028.42L995.843 1024.39L996.514 1029.17L972.638 1032.52L974.651 1046.85L998.528 1043.5L999.199 1048.27L970.547 1052.3ZM1003.97 1047.6L999.276 1014.17L1008.83 1012.83L1010.17 1022.38L1029.27 1019.7L1029.94 1024.47L1034.72 1023.8L1037.4 1042.9L1027.85 1044.24L1025.17 1025.14L1010.84 1027.16L1013.52 1046.26L1003.97 1047.6ZM1046.95 1041.56L1046.28 1036.78L1041.5 1037.45L1039.49 1023.13L1044.27 1022.46L1043.6 1017.68L1067.47 1014.33L1068.14 1019.1L1072.92 1018.43L1074.93 1032.76L1070.16 1033.43L1070.83 1038.2L1046.95 1041.56ZM1051.06 1036.11L1065.38 1034.1L1063.37 1019.77L1049.04 1021.79L1051.06 1036.11ZM1085.15 1036.19L1084.48 1031.41L1079.71 1032.09L1077.69 1017.76L1082.47 1017.09L1081.8 1012.31L1105.67 1008.96L1106.35 1013.73L1111.12 1013.06L1113.13 1027.39L1108.36 1028.06L1109.03 1032.83L1085.15 1036.19ZM1089.26 1030.74L1103.58 1028.73L1101.57 1014.4L1087.24 1016.42L1089.26 1030.74ZM1123.36 1030.82L1122.68 1026.05L1132.23 1024.7L1128.88 1000.83L1124.1 1001.5L1123.43 996.723L1137.76 994.71L1141.79 1023.36L1151.34 1022.02L1152.01 1026.79L1123.36 1030.82ZM1161.56 1025.45L1160.89 1020.68L1156.11 1021.35L1155.44 1016.57L1160.21 1015.9L1159.54 1011.13L1178.64 1008.44L1177.97 1003.67L1158.87 1006.35L1158.2 1001.58L1182.08 998.22L1182.75 1003L1187.52 1002.32L1190.21 1021.43L1161.56 1025.45ZM1165.66 1020.01L1179.99 1017.99L1179.32 1013.22L1164.99 1015.23L1165.66 1020.01Z" fill="#B1ECBB" fill-opacity="0.6"/>
<path d="M1213.85 52.7079L1213.18 47.9327L1237.06 44.5771L1236.39 39.8019L1217.28 42.4863L1216.61 37.7111L1211.84 38.3822L1211.17 33.607L1215.94 32.9358L1215.27 28.1606L1239.15 24.805L1239.82 29.5803L1220.72 32.2647L1221.39 37.04L1240.49 34.3555L1241.16 39.1307L1245.94 38.4596L1246.61 43.2349L1241.83 43.906L1242.5 48.6812L1213.85 52.7079ZM1256.83 46.6679L1256.16 41.8926L1251.38 42.5638L1249.37 28.238L1254.14 27.5669L1253.47 22.7917L1282.12 18.7649L1282.8 23.5402L1258.92 26.8958L1260.93 41.2215L1284.81 37.8659L1285.48 42.6412L1256.83 46.6679ZM1290.26 41.9701L1285.56 8.54334L1295.11 7.20111L1296.45 16.7516L1315.55 14.0671L1316.22 18.8424L1321 18.1713L1323.68 37.2722L1314.13 38.6145L1311.45 19.5135L1297.12 21.5268L1299.81 40.6278L1290.26 41.9701ZM1333.23 35.93L1332.56 31.1548L1327.79 31.8259L1325.77 17.5001L1330.55 16.829L1329.88 12.0538L1353.75 8.69819L1354.42 13.4734L1359.2 12.8023L1361.21 27.1281L1356.44 27.7992L1357.11 32.5744L1333.23 35.93ZM1337.34 30.4836L1351.66 28.4703L1349.65 14.1446L1335.32 16.1579L1337.34 30.4836ZM1371.43 30.5611L1370.76 25.7858L1365.99 26.4569L1363.98 12.1312L1368.75 11.4601L1368.08 6.68484L1391.96 3.32925L1392.63 8.1045L1397.4 7.43339L1399.42 21.7591L1394.64 22.4302L1395.31 27.2055L1371.43 30.5611ZM1375.54 25.1147L1389.86 23.1014L1387.85 8.77562L1373.53 10.789L1375.54 25.1147ZM1409.64 25.1921L1408.97 20.4169L1418.52 19.0747L1415.16 -4.80158L1410.39 -4.13046L1409.71 -8.90571L1424.04 -10.9191L1428.07 17.7324L1437.62 16.3902L1438.29 21.1654L1409.64 25.1921ZM1447.84 19.8232L1447.17 15.048L1442.39 15.7191L1441.72 10.9438L1446.5 10.2727L1445.83 5.49746L1464.93 2.81299L1464.26 -1.96225L1445.15 0.722216L1444.48 -4.05303L1468.36 -7.40862L1469.03 -2.63337L1473.81 -3.30449L1476.49 15.7965L1447.84 19.8232ZM1451.94 14.3768L1466.27 12.3635L1465.6 7.58824L1451.27 9.60159L1451.94 14.3768Z" fill="#B1ECBB" fill-opacity="0.6"/>
<path d="M-45.9235 229.758L-46.5947 224.982L-22.7184 221.627L-23.3895 216.851L-42.4905 219.536L-43.1616 214.761L-47.9369 215.432L-48.608 210.657L-43.8328 209.985L-44.5039 205.21L-20.6276 201.855L-19.9565 206.63L-39.0575 209.314L-38.3864 214.09L-19.2854 211.405L-18.6143 216.18L-13.839 215.509L-13.1679 220.284L-17.9432 220.956L-17.2721 225.731L-45.9235 229.758ZM-2.94632 223.718L-3.61744 218.942L-8.39269 219.613L-10.406 205.288L-5.63079 204.617L-6.30191 199.841L22.3496 195.815L23.0207 200.59L-0.855544 203.945L1.15781 218.271L25.034 214.916L25.7052 219.691L-2.94632 223.718ZM30.4804 219.02L25.7826 185.593L35.3331 184.251L36.6753 193.801L55.7763 191.117L56.4474 195.892L61.2227 195.221L63.9071 214.322L54.3566 215.664L51.6722 196.563L37.3464 198.576L40.0309 217.677L30.4804 219.02ZM73.4576 212.98L72.7865 208.204L68.0113 208.876L65.9979 194.55L70.7732 193.879L70.102 189.103L93.9783 185.748L94.6494 190.523L99.4246 189.852L101.438 204.178L96.6627 204.849L97.3339 209.624L73.4576 212.98ZM77.5617 207.533L91.8875 205.52L89.8741 191.194L75.5484 193.208L77.5617 207.533ZM111.66 207.611L110.988 202.835L106.213 203.507L104.2 189.181L108.975 188.51L108.304 183.734L132.18 180.379L132.851 185.154L137.627 184.483L139.64 198.809L134.865 199.48L135.536 204.255L111.66 207.611ZM115.764 202.164L130.089 200.151L128.076 185.825L113.75 187.839L115.764 202.164ZM149.862 202.242L149.19 197.467L158.741 196.124L155.385 172.248L150.61 172.919L149.939 168.144L164.265 166.131L168.291 194.782L177.842 193.44L178.513 198.215L149.862 202.242ZM188.064 196.873L187.392 192.098L182.617 192.769L181.946 187.993L186.721 187.322L186.05 182.547L205.151 179.863L204.48 175.087L185.379 177.772L184.708 172.997L208.584 169.641L209.255 174.416L214.031 173.745L216.715 192.846L188.064 196.873ZM192.168 191.426L206.493 189.413L205.822 184.638L191.497 186.651L192.168 191.426Z" fill="#B1ECBB" fill-opacity="0.6"/>
<path d="M374.298 170.699L373.627 165.924L397.503 162.569L396.832 157.793L377.731 160.478L377.06 155.703L372.285 156.374L371.614 151.598L376.389 150.927L375.718 146.152L399.594 142.796L400.265 147.572L381.164 150.256L381.835 155.031L400.936 152.347L401.607 157.122L406.383 156.451L407.054 161.226L402.279 161.897L402.95 166.673L374.298 170.699ZM417.275 164.659L416.604 159.884L411.829 160.555L409.816 146.229L414.591 145.558L413.92 140.783L442.571 136.756L443.242 141.532L419.366 144.887L421.379 159.213L445.256 155.857L445.927 160.633L417.275 164.659ZM450.702 159.961L446.004 126.535L455.555 125.193L456.897 134.743L475.998 132.059L476.669 136.834L481.444 136.163L484.129 155.264L474.578 156.606L471.894 137.505L457.568 139.518L460.253 158.619L450.702 159.961ZM493.679 153.921L493.008 149.146L488.233 149.817L486.22 135.492L490.995 134.82L490.324 130.045L514.2 126.69L514.871 131.465L519.646 130.794L521.66 145.119L516.884 145.791L517.556 150.566L493.679 153.921ZM497.783 148.475L512.109 146.462L510.096 132.136L495.77 134.149L497.783 148.475ZM531.881 148.553L531.21 143.777L526.435 144.448L524.422 130.123L529.197 129.452L528.526 124.676L552.402 121.321L553.073 126.096L557.848 125.425L559.862 139.751L555.086 140.422L555.758 145.197L531.881 148.553ZM535.985 143.106L550.311 141.093L548.298 126.767L533.972 128.78L535.985 143.106ZM570.083 143.184L569.412 138.408L578.963 137.066L575.607 113.19L570.832 113.861L570.161 109.086L584.486 107.072L588.513 135.724L598.064 134.382L598.735 139.157L570.083 143.184ZM608.285 137.815L607.614 133.039L602.839 133.71L602.168 128.935L606.943 128.264L606.272 123.489L625.373 120.804L624.702 116.029L605.601 118.714L604.93 113.938L628.806 110.583L629.477 115.358L634.252 114.687L636.937 133.788L608.285 137.815ZM612.389 132.368L626.715 130.355L626.044 125.58L611.718 127.593L612.389 132.368Z" fill="#B1ECBB" fill-opacity="0.6"/>
<path d="M794.521 111.641L793.85 106.865L817.726 103.51L817.055 98.7346L797.954 101.419L797.283 96.6439L792.507 97.315L791.836 92.5397L796.612 91.8686L795.94 87.0934L819.817 83.7378L820.488 88.513L801.387 91.1975L802.058 95.9727L821.159 93.2883L821.83 98.0635L826.605 97.3924L827.276 102.168L822.501 102.839L823.172 107.614L794.521 111.641ZM837.498 105.601L836.827 100.825L832.052 101.497L830.038 87.1708L834.814 86.4997L834.142 81.7244L862.794 77.6977L863.465 82.473L839.589 85.8286L841.602 100.154L865.478 96.7987L866.149 101.574L837.498 105.601ZM870.925 100.903L866.227 67.4761L875.777 66.1339L877.12 75.6844L896.221 72.9999L896.892 77.7751L901.667 77.104L904.351 96.205L894.801 97.5473L892.117 78.4463L877.791 80.4596L880.475 99.5606L870.925 100.903ZM913.902 94.8628L913.231 90.0875L908.456 90.7587L906.442 76.4329L911.217 75.7618L910.546 70.9865L934.423 67.631L935.094 72.4062L939.869 71.7351L941.882 86.0608L937.107 86.732L937.778 91.5072L913.902 94.8628ZM918.006 89.4164L932.332 87.4031L930.318 73.0773L915.993 75.0907L918.006 89.4164ZM952.104 89.4938L951.433 84.7186L946.658 85.3897L944.644 71.064L949.419 70.3929L948.748 65.6176L972.625 62.262L973.296 67.0373L978.071 66.3662L980.084 80.6919L975.309 81.363L975.98 86.1383L952.104 89.4938ZM956.208 84.0475L970.534 82.0341L968.52 67.7084L954.195 69.7217L956.208 84.0475ZM990.306 84.1249L989.635 79.3497L999.185 78.0074L995.83 54.1312L991.054 54.8023L990.383 50.0271L1004.71 48.0137L1008.74 76.6652L1018.29 75.323L1018.96 80.0982L990.306 84.1249ZM1028.51 78.756L1027.84 73.9807L1023.06 74.6518L1022.39 69.8766L1027.17 69.2055L1026.49 64.4302L1045.6 61.7458L1044.92 56.9705L1025.82 59.655L1025.15 54.8797L1049.03 51.5242L1049.7 56.2994L1054.47 55.6283L1057.16 74.7293L1028.51 78.756ZM1032.61 73.3096L1046.94 71.2963L1046.27 66.521L1031.94 68.5344L1032.61 73.3096Z" fill="#B1ECBB" fill-opacity="0.6"/>
<path d="M1280.38 526.056L1279.71 521.281L1303.58 517.925L1302.91 513.15L1283.81 515.834L1283.14 511.059L1278.36 511.73L1277.69 506.955L1282.47 506.284L1281.8 501.509L1305.67 498.153L1306.34 502.928L1287.24 505.613L1287.91 510.388L1307.01 507.704L1307.69 512.479L1312.46 511.808L1313.13 516.583L1308.36 517.254L1309.03 522.029L1280.38 526.056ZM1323.35 520.016L1322.68 515.241L1317.91 515.912L1315.89 501.586L1320.67 500.915L1320 496.14L1348.65 492.113L1349.32 496.888L1325.44 500.244L1327.46 514.57L1351.33 511.214L1352 515.989L1323.35 520.016ZM1356.78 515.318L1352.08 481.891L1361.63 480.549L1362.98 490.1L1382.08 487.415L1382.75 492.191L1387.52 491.519L1390.21 510.62L1380.66 511.963L1377.97 492.862L1363.65 494.875L1366.33 513.976L1356.78 515.318ZM1399.76 509.278L1399.09 504.503L1394.31 505.174L1392.3 490.848L1397.07 490.177L1396.4 485.402L1420.28 482.046L1420.95 486.822L1425.72 486.15L1427.74 500.476L1422.96 501.147L1423.63 505.923L1399.76 509.278ZM1403.86 503.832L1418.19 501.818L1416.17 487.493L1401.85 489.506L1403.86 503.832ZM1437.96 503.909L1437.29 499.134L1432.51 499.805L1430.5 485.479L1435.27 484.808L1434.6 480.033L1458.48 476.677L1459.15 481.453L1463.93 480.782L1465.94 495.107L1461.16 495.778L1461.84 500.554L1437.96 503.909ZM1442.06 498.463L1456.39 496.449L1454.38 482.124L1440.05 484.137L1442.06 498.463ZM1476.16 498.54L1475.49 493.765L1485.04 492.423L1481.69 468.547L1476.91 469.218L1476.24 464.442L1490.56 462.429L1494.59 491.081L1504.14 489.738L1504.81 494.514L1476.16 498.54ZM1514.36 493.171L1513.69 488.396L1508.92 489.067L1508.25 484.292L1513.02 483.621L1512.35 478.846L1531.45 476.161L1530.78 471.386L1511.68 474.07L1511.01 469.295L1534.88 465.94L1535.56 470.715L1540.33 470.044L1543.01 489.145L1514.36 493.171ZM1518.47 487.725L1532.79 485.712L1532.12 480.936L1517.8 482.95L1518.47 487.725Z" fill="#B1ECBB" fill-opacity="0.6"/>
<path d="M1700.6 466.998L1699.93 462.223L1723.8 458.867L1723.13 454.092L1704.03 456.776L1703.36 452.001L1698.59 452.672L1697.91 447.897L1702.69 447.226L1702.02 442.45L1725.89 439.095L1726.57 443.87L1707.46 446.555L1708.14 451.33L1727.24 448.645L1727.91 453.421L1732.68 452.749L1733.35 457.525L1728.58 458.196L1729.25 462.971L1700.6 466.998ZM1743.58 460.958L1742.9 456.182L1738.13 456.854L1736.12 442.528L1740.89 441.857L1740.22 437.081L1768.87 433.055L1769.54 437.83L1745.67 441.186L1747.68 455.511L1771.56 452.156L1772.23 456.931L1743.58 460.958ZM1777 456.26L1772.3 422.833L1781.86 421.491L1783.2 431.041L1802.3 428.357L1802.97 433.132L1807.74 432.461L1810.43 451.562L1800.88 452.904L1798.19 433.803L1783.87 435.817L1786.55 454.918L1777 456.26ZM1819.98 450.22L1819.31 445.445L1814.53 446.116L1812.52 431.79L1817.3 431.119L1816.62 426.344L1840.5 422.988L1841.17 427.763L1845.95 427.092L1847.96 441.418L1843.18 442.089L1843.86 446.864L1819.98 450.22ZM1824.08 444.773L1838.41 442.76L1836.4 428.434L1822.07 430.448L1824.08 444.773ZM1858.18 444.851L1857.51 440.076L1852.74 440.747L1850.72 426.421L1855.5 425.75L1854.83 420.975L1878.7 417.619L1879.37 422.394L1884.15 421.723L1886.16 436.049L1881.39 436.72L1882.06 441.495L1858.18 444.851ZM1862.29 439.405L1876.61 437.391L1874.6 423.065L1860.27 425.079L1862.29 439.405ZM1896.38 439.482L1895.71 434.707L1905.26 433.364L1901.91 409.488L1897.13 410.159L1896.46 405.384L1910.79 403.371L1914.81 432.022L1924.36 430.68L1925.04 435.455L1896.38 439.482ZM1934.59 434.113L1933.91 429.338L1929.14 430.009L1928.47 425.234L1933.24 424.563L1932.57 419.787L1951.67 417.103L1951 412.328L1931.9 415.012L1931.23 410.237L1955.11 406.881L1955.78 411.656L1960.55 410.985L1963.24 430.086L1934.59 434.113ZM1938.69 428.667L1953.02 426.653L1952.34 421.878L1938.02 423.891L1938.69 428.667Z" fill="#B1ECBB" fill-opacity="0.6"/>
<path d="M20.6009 703.106L19.9298 698.33L43.806 694.975L43.1349 690.2L24.0339 692.884L23.3628 688.109L18.5875 688.78L17.9164 684.005L22.6917 683.334L22.0205 678.558L45.8968 675.203L46.5679 679.978L27.4669 682.662L28.138 687.438L47.239 684.753L47.9101 689.529L52.6854 688.857L53.3565 693.633L48.5812 694.304L49.2524 699.079L20.6009 703.106ZM63.5781 697.066L62.907 692.29L58.1317 692.962L56.1184 678.636L60.8936 677.965L60.2225 673.189L88.874 669.163L89.5451 673.938L65.6689 677.294L67.6822 691.619L91.5585 688.264L92.2296 693.039L63.5781 697.066ZM97.0048 692.368L92.307 658.941L101.857 657.599L103.2 667.149L122.301 664.465L122.972 669.24L127.747 668.569L130.432 687.67L120.881 689.012L118.197 669.911L103.871 671.925L106.555 691.026L97.0048 692.368ZM139.982 686.328L139.311 681.553L134.536 682.224L132.522 667.898L137.298 667.227L136.626 662.452L160.503 659.096L161.174 663.871L165.949 663.2L167.962 677.526L163.187 678.197L163.858 682.972L139.982 686.328ZM144.086 680.881L158.412 678.868L156.399 664.542L142.073 666.556L144.086 680.881ZM178.184 680.959L177.513 676.184L172.738 676.855L170.724 662.529L175.5 661.858L174.828 657.083L198.705 653.727L199.376 658.502L204.151 657.831L206.164 672.157L201.389 672.828L202.06 677.603L178.184 680.959ZM182.288 675.512L196.614 673.499L194.601 659.173L180.275 661.187L182.288 675.512ZM216.386 675.59L215.715 670.815L225.265 669.472L221.91 645.596L217.135 646.267L216.463 641.492L230.789 639.479L234.816 668.13L244.366 666.788L245.037 671.563L216.386 675.59ZM254.588 670.221L253.917 665.446L249.142 666.117L248.47 661.342L253.246 660.67L252.575 655.895L271.676 653.211L271.004 648.436L251.903 651.12L251.232 646.345L275.109 642.989L275.78 647.764L280.555 647.093L283.239 666.194L254.588 670.221ZM258.692 664.775L273.018 662.761L272.347 657.986L258.021 659.999L258.692 664.775Z" fill="#B1ECBB" fill-opacity="0.6"/>
<path d="M440.823 644.048L440.151 639.272L464.028 635.917L463.357 631.141L444.256 633.826L443.584 629.051L438.809 629.722L438.138 624.947L442.913 624.275L442.242 619.5L466.118 616.145L466.79 620.92L447.689 623.604L448.36 628.38L467.461 625.695L468.132 630.47L472.907 629.799L473.578 634.574L468.803 635.246L469.474 640.021L440.823 644.048ZM483.8 638.007L483.129 633.232L478.353 633.903L476.34 619.578L481.115 618.906L480.444 614.131L509.096 610.105L509.767 614.88L485.891 618.235L487.904 632.561L511.78 629.205L512.451 633.981L483.8 638.007ZM517.226 633.31L512.529 599.883L522.079 598.541L523.421 608.091L542.522 605.407L543.194 610.182L547.969 609.511L550.653 628.612L541.103 629.954L538.418 610.853L524.093 612.866L526.777 631.967L517.226 633.31ZM560.204 627.27L559.533 622.494L554.757 623.165L552.744 608.84L557.519 608.169L556.848 603.393L580.724 600.038L581.395 604.813L586.171 604.142L588.184 618.468L583.409 619.139L584.08 623.914L560.204 627.27ZM564.308 621.823L578.634 619.81L576.62 605.484L562.294 607.497L564.308 621.823ZM598.406 621.901L597.735 617.125L592.959 617.797L590.946 603.471L595.721 602.8L595.05 598.024L618.926 594.669L619.597 599.444L624.373 598.773L626.386 613.099L621.611 613.77L622.282 618.545L598.406 621.901ZM602.51 616.454L616.836 614.441L614.822 600.115L600.496 602.129L602.51 616.454ZM636.608 616.532L635.937 611.756L645.487 610.414L642.131 586.538L637.356 587.209L636.685 582.434L651.011 580.421L655.038 609.072L664.588 607.73L665.259 612.505L636.608 616.532ZM674.81 611.163L674.139 606.388L669.363 607.059L668.692 602.283L673.467 601.612L672.796 596.837L691.897 594.153L691.226 589.377L672.125 592.062L671.454 587.287L695.33 583.931L696.001 588.706L700.777 588.035L703.461 607.136L674.81 611.163ZM678.914 605.716L693.239 603.703L692.568 598.928L678.243 600.941L678.914 605.716Z" fill="#B1ECBB" fill-opacity="0.6"/>
<path d="M861.045 584.989L860.374 580.214L884.25 576.858L883.579 572.083L864.478 574.767L863.807 569.992L859.032 570.663L858.361 565.888L863.136 565.217L862.465 560.442L886.341 557.086L887.012 561.861L867.911 564.546L868.582 569.321L887.683 566.636L888.354 571.412L893.13 570.741L893.801 575.516L889.026 576.187L889.697 580.962L861.045 584.989ZM904.022 578.949L903.351 574.174L898.576 574.845L896.563 560.519L901.338 559.848L900.667 555.073L929.318 551.046L929.989 555.821L906.113 559.177L908.127 573.502L932.003 570.147L932.674 574.922L904.022 578.949ZM937.449 574.251L932.751 540.824L942.302 539.482L943.644 549.033L962.745 546.348L963.416 551.123L968.191 550.452L970.876 569.553L961.325 570.895L958.641 551.794L944.315 553.808L947 572.909L937.449 574.251ZM980.426 568.211L979.755 563.436L974.98 564.107L972.967 549.781L977.742 549.11L977.071 544.335L1000.95 540.979L1001.62 545.754L1006.39 545.083L1008.41 559.409L1003.63 560.08L1004.3 564.855L980.426 568.211ZM984.53 562.765L998.856 560.751L996.843 546.425L982.517 548.439L984.53 562.765ZM1018.63 562.842L1017.96 558.067L1013.18 558.738L1011.17 544.412L1015.94 543.741L1015.27 538.966L1039.15 535.61L1039.82 540.385L1044.6 539.714L1046.61 554.04L1041.83 554.711L1042.5 559.486L1018.63 562.842ZM1022.73 557.396L1037.06 555.382L1035.04 541.057L1020.72 543.07L1022.73 557.396ZM1056.83 557.473L1056.16 552.698L1065.71 551.356L1062.35 527.479L1057.58 528.15L1056.91 523.375L1071.23 521.362L1075.26 550.013L1084.81 548.671L1085.48 553.446L1056.83 557.473ZM1095.03 552.104L1094.36 547.329L1089.59 548L1088.91 543.225L1093.69 542.554L1093.02 537.778L1112.12 535.094L1111.45 530.319L1092.35 533.003L1091.68 528.228L1115.55 524.872L1116.22 529.648L1121 528.976L1123.68 548.077L1095.03 552.104ZM1099.14 546.658L1113.46 544.644L1112.79 539.869L1098.47 541.883L1099.14 546.658Z" fill="#B1ECBB" fill-opacity="0.6"/>
<path d="M1247.11 289.382L1246.44 284.607L1270.32 281.252L1269.65 276.476L1250.55 279.161L1249.88 274.386L1245.1 275.057L1244.43 270.281L1249.2 269.61L1248.53 264.835L1272.41 261.479L1273.08 266.255L1253.98 268.939L1254.65 273.714L1273.75 271.03L1274.42 275.805L1279.2 275.134L1279.87 279.909L1275.09 280.58L1275.77 285.356L1247.11 289.382ZM1290.09 283.342L1289.42 278.567L1284.64 279.238L1282.63 264.912L1287.41 264.241L1286.74 259.466L1315.39 255.439L1316.06 260.215L1292.18 263.57L1294.2 277.896L1318.07 274.54L1318.74 279.316L1290.09 283.342ZM1323.52 278.644L1318.82 245.218L1328.37 243.876L1329.71 253.426L1348.81 250.742L1349.49 255.517L1354.26 254.846L1356.94 273.947L1347.39 275.289L1344.71 256.188L1330.38 258.201L1333.07 277.302L1323.52 278.644ZM1366.5 272.604L1365.82 267.829L1361.05 268.5L1359.04 254.175L1363.81 253.503L1363.14 248.728L1387.02 245.373L1387.69 250.148L1392.46 249.477L1394.48 263.802L1389.7 264.474L1390.37 269.249L1366.5 272.604ZM1370.6 267.158L1384.93 265.145L1382.91 250.819L1368.59 252.832L1370.6 267.158ZM1404.7 267.235L1404.03 262.46L1399.25 263.131L1397.24 248.806L1402.01 248.135L1401.34 243.359L1425.22 240.004L1425.89 244.779L1430.66 244.108L1432.68 258.434L1427.9 259.105L1428.57 263.88L1404.7 267.235ZM1408.8 261.789L1423.13 259.776L1421.11 245.45L1406.79 247.463L1408.8 261.789ZM1442.9 261.867L1442.23 257.091L1451.78 255.749L1448.42 231.873L1443.65 232.544L1442.98 227.769L1457.3 225.755L1461.33 254.407L1470.88 253.065L1471.55 257.84L1442.9 261.867ZM1481.1 256.498L1480.43 251.722L1475.65 252.393L1474.98 247.618L1479.76 246.947L1479.09 242.172L1498.19 239.487L1497.52 234.712L1478.42 237.397L1477.75 232.621L1501.62 229.266L1502.29 234.041L1507.07 233.37L1509.75 252.471L1481.1 256.498ZM1485.21 251.051L1499.53 249.038L1498.86 244.263L1484.53 246.276L1485.21 251.051Z" fill="#B1ECBB" fill-opacity="0.6"/>
<path d="M1667.34 230.324L1666.67 225.549L1690.54 222.193L1689.87 217.418L1670.77 220.102L1670.1 215.327L1665.32 215.998L1664.65 211.223L1669.43 210.552L1668.76 205.777L1692.63 202.421L1693.3 207.196L1674.2 209.881L1674.87 214.656L1693.97 211.972L1694.65 216.747L1699.42 216.076L1700.09 220.851L1695.32 221.522L1695.99 226.297L1667.34 230.324ZM1710.31 224.284L1709.64 219.509L1704.87 220.18L1702.85 205.854L1707.63 205.183L1706.96 200.408L1735.61 196.381L1736.28 201.156L1712.4 204.512L1714.42 218.838L1738.29 215.482L1738.96 220.257L1710.31 224.284ZM1743.74 219.586L1739.04 186.159L1748.59 184.817L1749.94 194.368L1769.04 191.683L1769.71 196.458L1774.48 195.787L1777.17 214.888L1767.62 216.231L1764.93 197.13L1750.61 199.143L1753.29 218.244L1743.74 219.586ZM1786.72 213.546L1786.05 208.771L1781.27 209.442L1779.26 195.116L1784.03 194.445L1783.36 189.67L1807.24 186.314L1807.91 191.09L1812.68 190.418L1814.7 204.744L1809.92 205.415L1810.59 210.191L1786.72 213.546ZM1790.82 208.1L1805.15 206.086L1803.13 191.761L1788.81 193.774L1790.82 208.1ZM1824.92 208.177L1824.25 203.402L1819.47 204.073L1817.46 189.747L1822.23 189.076L1821.56 184.301L1845.44 180.945L1846.11 185.721L1850.89 185.049L1852.9 199.375L1848.12 200.046L1848.8 204.822L1824.92 208.177ZM1829.02 202.731L1843.35 200.717L1841.34 186.392L1827.01 188.405L1829.02 202.731ZM1863.12 202.808L1862.45 198.033L1872 196.691L1868.65 172.815L1863.87 173.486L1863.2 168.71L1877.52 166.697L1881.55 195.349L1891.1 194.006L1891.77 198.782L1863.12 202.808ZM1901.32 197.439L1900.65 192.664L1895.88 193.335L1895.21 188.56L1899.98 187.889L1899.31 183.114L1918.41 180.429L1917.74 175.654L1898.64 178.338L1897.97 173.563L1921.84 170.207L1922.52 174.983L1927.29 174.312L1929.97 193.413L1901.32 197.439ZM1905.43 191.993L1919.75 189.98L1919.08 185.204L1904.76 187.218L1905.43 191.993Z" fill="#B1ECBB" fill-opacity="0.6"/>
<path d="M-12.6613 466.432L-13.3325 461.657L10.5438 458.301L9.87266 453.526L-9.22832 456.21L-9.89944 451.435L-14.6747 452.106L-15.3458 447.331L-10.5706 446.66L-11.2417 441.885L12.6346 438.529L13.3057 443.304L-5.79531 445.989L-5.12419 450.764L13.9768 448.08L14.6479 452.855L19.4232 452.184L20.0943 456.959L15.319 457.63L15.9901 462.405L-12.6613 466.432ZM30.3159 460.392L29.6448 455.617L24.8695 456.288L22.8562 441.962L27.6314 441.291L26.9603 436.516L55.6118 432.489L56.2829 437.264L32.4067 440.62L34.42 454.946L58.2962 451.59L58.9674 456.365L30.3159 460.392ZM63.7426 455.694L59.0448 422.267L68.5953 420.925L69.9375 430.476L89.0385 427.791L89.7096 432.566L94.4849 431.895L97.1693 450.996L87.6188 452.339L84.9344 433.238L70.6086 435.251L73.2931 454.352L63.7426 455.694ZM106.72 449.654L106.049 444.879L101.273 445.55L99.2601 431.224L104.035 430.553L103.364 425.778L127.24 422.422L127.912 427.198L132.687 426.526L134.7 440.852L129.925 441.523L130.596 446.298L106.72 449.654ZM110.824 444.208L125.15 442.194L123.136 427.869L108.811 429.882L110.824 444.208ZM144.922 444.285L144.251 439.51L139.475 440.181L137.462 425.855L142.237 425.184L141.566 420.409L165.442 417.053L166.114 421.829L170.889 421.157L172.902 435.483L168.127 436.154L168.798 440.93L144.922 444.285ZM149.026 438.839L163.352 436.825L161.338 422.5L147.013 424.513L149.026 438.839ZM183.124 438.916L182.453 434.141L192.003 432.799L188.648 408.922L183.872 409.594L183.201 404.818L197.527 402.805L201.554 431.456L211.104 430.114L211.775 434.889L183.124 438.916ZM221.326 433.547L220.655 428.772L215.879 429.443L215.208 424.668L219.984 423.997L219.312 419.222L238.413 416.537L237.742 411.762L218.641 414.446L217.97 409.671L241.846 406.315L242.518 411.091L247.293 410.42L249.977 429.521L221.326 433.547ZM225.43 428.101L239.756 426.088L239.084 421.312L224.759 423.326L225.43 428.101Z" fill="#B1ECBB" fill-opacity="0.6"/>
<path d="M407.56 407.374L406.889 402.599L430.765 399.243L430.094 394.468L410.993 397.152L410.322 392.377L405.547 393.048L404.876 388.273L409.651 387.602L408.98 382.826L432.856 379.471L433.527 384.246L414.426 386.931L415.097 391.706L434.198 389.021L434.87 393.797L439.645 393.125L440.316 397.901L435.541 398.572L436.212 403.347L407.56 407.374ZM450.538 401.334L449.866 396.558L445.091 397.23L443.078 382.904L447.853 382.233L447.182 377.458L475.833 373.431L476.505 378.206L452.628 381.562L454.642 395.887L478.518 392.532L479.189 397.307L450.538 401.334ZM483.964 396.636L479.266 363.209L488.817 361.867L490.159 371.417L509.26 368.733L509.931 373.508L514.707 372.837L517.391 391.938L507.841 393.28L505.156 374.179L490.83 376.193L493.515 395.294L483.964 396.636ZM526.942 390.596L526.27 385.821L521.495 386.492L519.482 372.166L524.257 371.495L523.586 366.72L547.462 363.364L548.133 368.139L552.909 367.468L554.922 381.794L550.147 382.465L550.818 387.24L526.942 390.596ZM531.046 385.15L545.371 383.136L543.358 368.81L529.032 370.824L531.046 385.15ZM565.143 385.227L564.472 380.452L559.697 381.123L557.684 366.797L562.459 366.126L561.788 361.351L585.664 357.995L586.335 362.77L591.11 362.099L593.124 376.425L588.349 377.096L589.02 381.871L565.143 385.227ZM569.248 379.781L583.573 377.767L581.56 363.441L567.234 365.455L569.248 379.781ZM603.345 379.858L602.674 375.083L612.225 373.741L608.869 349.864L604.094 350.535L603.423 345.76L617.749 343.747L621.775 372.398L631.326 371.056L631.997 375.831L603.345 379.858ZM641.547 374.489L640.876 369.714L636.101 370.385L635.43 365.61L640.205 364.939L639.534 360.163L658.635 357.479L657.964 352.704L638.863 355.388L638.192 350.613L662.068 347.257L662.739 352.032L667.514 351.361L670.199 370.462L641.547 374.489ZM645.652 369.043L659.977 367.029L659.306 362.254L644.98 364.267L645.652 369.043Z" fill="#B1ECBB" fill-opacity="0.6"/>
<path d="M827.783 348.315L827.112 343.54L850.988 340.184L850.317 335.409L831.216 338.094L830.545 333.318L825.77 333.989L825.099 329.214L829.874 328.543L829.203 323.768L853.079 320.412L853.75 325.187L834.649 327.872L835.32 332.647L854.421 329.963L855.092 334.738L859.867 334.067L860.539 338.842L855.763 339.513L856.434 344.288L827.783 348.315ZM870.76 342.275L870.089 337.5L865.314 338.171L863.301 323.845L868.076 323.174L867.405 318.399L896.056 314.372L896.727 319.147L872.851 322.503L874.864 336.829L898.741 333.473L899.412 338.248L870.76 342.275ZM904.187 337.577L899.489 304.151L909.04 302.808L910.382 312.359L929.483 309.674L930.154 314.45L934.929 313.778L937.614 332.879L928.063 334.222L925.379 315.121L911.053 317.134L913.737 336.235L904.187 337.577ZM947.164 331.537L946.493 326.762L941.718 327.433L939.704 313.107L944.48 312.436L943.809 307.661L967.685 304.305L968.356 309.081L973.131 308.41L975.145 322.735L970.369 323.406L971.04 328.182L947.164 331.537ZM951.268 326.091L965.594 324.078L963.581 309.752L949.255 311.765L951.268 326.091ZM985.366 326.168L984.695 321.393L979.92 322.064L977.906 307.738L982.682 307.067L982.011 302.292L1005.89 298.936L1006.56 303.712L1011.33 303.041L1013.35 317.366L1008.57 318.037L1009.24 322.813L985.366 326.168ZM989.47 320.722L1003.8 318.709L1001.78 304.383L987.457 306.396L989.47 320.722ZM1023.57 320.799L1022.9 316.024L1032.45 314.682L1029.09 290.806L1024.32 291.477L1023.65 286.702L1037.97 284.688L1042 313.34L1051.55 311.997L1052.22 316.773L1023.57 320.799ZM1061.77 315.43L1061.1 310.655L1056.32 311.326L1055.65 306.551L1060.43 305.88L1059.76 301.105L1078.86 298.42L1078.19 293.645L1059.09 296.329L1058.41 291.554L1082.29 288.199L1082.96 292.974L1087.74 292.303L1090.42 311.404L1061.77 315.43ZM1065.87 309.984L1080.2 307.971L1079.53 303.195L1065.2 305.209L1065.87 309.984Z" fill="#B1ECBB" fill-opacity="0.6"/>
<path d="M1313.64 762.731L1312.97 757.955L1336.84 754.6L1336.17 749.824L1317.07 752.509L1316.4 747.734L1311.63 748.405L1310.95 743.63L1315.73 742.958L1315.06 738.183L1338.93 734.828L1339.61 739.603L1320.5 742.287L1321.18 747.063L1340.28 744.378L1340.95 749.153L1345.72 748.482L1346.39 753.257L1341.62 753.929L1342.29 758.704L1313.64 762.731ZM1356.62 756.69L1355.95 751.915L1351.17 752.586L1349.16 738.261L1353.93 737.589L1353.26 732.814L1381.91 728.788L1382.58 733.563L1358.71 736.918L1360.72 751.244L1384.6 747.889L1385.27 752.664L1356.62 756.69ZM1390.04 751.993L1385.35 718.566L1394.9 717.224L1396.24 726.774L1415.34 724.09L1416.01 728.865L1420.79 728.194L1423.47 747.295L1413.92 748.637L1411.23 729.536L1396.91 731.549L1399.59 750.65L1390.04 751.993ZM1433.02 745.953L1432.35 741.177L1427.57 741.848L1425.56 727.523L1430.34 726.852L1429.66 722.076L1453.54 718.721L1454.21 723.496L1458.99 722.825L1461 737.151L1456.23 737.822L1456.9 742.597L1433.02 745.953ZM1437.12 740.506L1451.45 738.493L1449.44 724.167L1435.11 726.18L1437.12 740.506ZM1471.22 740.584L1470.55 735.808L1465.78 736.48L1463.76 722.154L1468.54 721.483L1467.87 716.707L1491.74 713.352L1492.41 718.127L1497.19 717.456L1499.2 731.782L1494.43 732.453L1495.1 737.228L1471.22 740.584ZM1475.33 735.137L1489.65 733.124L1487.64 718.798L1473.31 720.812L1475.33 735.137ZM1509.42 735.215L1508.75 730.439L1518.3 729.097L1514.95 705.221L1510.17 705.892L1509.5 701.117L1523.83 699.104L1527.85 727.755L1537.4 726.413L1538.08 731.188L1509.42 735.215ZM1547.63 729.846L1546.95 725.071L1542.18 725.742L1541.51 720.966L1546.28 720.295L1545.61 715.52L1564.71 712.836L1564.04 708.06L1544.94 710.745L1544.27 705.97L1568.15 702.614L1568.82 707.389L1573.59 706.718L1576.28 725.819L1547.63 729.846ZM1551.73 724.399L1566.06 722.386L1565.38 717.611L1551.06 719.624L1551.73 724.399Z" fill="#B1ECBB" fill-opacity="0.6"/>
<path d="M1733.86 703.672L1733.19 698.897L1757.07 695.541L1756.4 690.766L1737.29 693.451L1736.62 688.675L1731.85 689.346L1731.18 684.571L1735.95 683.9L1735.28 679.125L1759.16 675.769L1759.83 680.545L1740.73 683.229L1741.4 688.004L1760.5 685.32L1761.17 690.095L1765.95 689.424L1766.62 694.199L1761.84 694.87L1762.51 699.645L1733.86 703.672ZM1776.84 697.632L1776.17 692.857L1771.39 693.528L1769.38 679.202L1774.15 678.531L1773.48 673.756L1802.13 669.729L1802.81 674.504L1778.93 677.86L1780.94 692.186L1804.82 688.83L1805.49 693.605L1776.84 697.632ZM1810.27 692.934L1805.57 659.508L1815.12 658.165L1816.46 667.716L1835.56 665.031L1836.23 669.807L1841.01 669.136L1843.69 688.236L1834.14 689.579L1831.46 670.478L1817.13 672.491L1819.82 691.592L1810.27 692.934ZM1853.24 686.894L1852.57 682.119L1847.8 682.79L1845.78 668.464L1850.56 667.793L1849.89 663.018L1873.76 659.662L1874.43 664.438L1879.21 663.767L1881.22 678.092L1876.45 678.763L1877.12 683.539L1853.24 686.894ZM1857.35 681.448L1871.67 679.435L1869.66 665.109L1855.33 667.122L1857.35 681.448ZM1891.44 681.525L1890.77 676.75L1886 677.421L1883.98 663.095L1888.76 662.424L1888.09 657.649L1911.96 654.294L1912.64 659.069L1917.41 658.398L1919.42 672.723L1914.65 673.394L1915.32 678.17L1891.44 681.525ZM1895.55 676.079L1909.87 674.066L1907.86 659.74L1893.54 661.753L1895.55 676.079ZM1929.65 676.156L1928.98 671.381L1938.53 670.039L1935.17 646.163L1930.39 646.834L1929.72 642.059L1944.05 640.045L1948.08 668.697L1957.63 667.354L1958.3 672.13L1929.65 676.156ZM1967.85 670.787L1967.18 666.012L1962.4 666.683L1961.73 661.908L1966.51 661.237L1965.83 656.462L1984.94 653.777L1984.26 649.002L1965.16 651.686L1964.49 646.911L1988.37 643.556L1989.04 648.331L1993.82 647.66L1996.5 666.761L1967.85 670.787ZM1971.95 665.341L1986.28 663.328L1985.61 658.552L1971.28 660.566L1971.95 665.341Z" fill="#B1ECBB" fill-opacity="0.6"/>
<path d="M53.8636 939.78L53.1925 935.005L77.0687 931.649L76.3976 926.874L57.2966 929.559L56.6255 924.783L51.8502 925.454L51.1791 920.679L55.9543 920.008L55.2832 915.233L79.1595 911.877L79.8306 916.652L60.7296 919.337L61.4007 924.112L80.5017 921.428L81.1728 926.203L85.9481 925.532L86.6192 930.307L81.8439 930.978L82.515 935.753L53.8636 939.78ZM96.8408 933.74L96.1697 928.965L91.3944 929.636L89.3811 915.31L94.1563 914.639L93.4852 909.864L122.137 905.837L122.808 910.612L98.9316 913.968L100.945 928.294L124.821 924.938L125.492 929.713L96.8408 933.74ZM130.268 929.042L125.57 895.616L135.12 894.273L136.462 903.824L155.563 901.139L156.235 905.915L161.01 905.243L163.694 924.344L154.144 925.687L151.459 906.586L137.134 908.599L139.818 927.7L130.268 929.042ZM173.245 923.002L172.574 918.227L167.798 918.898L165.785 904.572L170.56 903.901L169.889 899.126L193.765 895.77L194.436 900.546L199.212 899.875L201.225 914.2L196.45 914.871L197.121 919.647L173.245 923.002ZM177.349 917.556L191.675 915.543L189.661 901.217L175.336 903.23L177.349 917.556ZM211.447 917.633L210.776 912.858L206 913.529L203.987 899.203L208.762 898.532L208.091 893.757L231.967 890.401L232.638 895.177L237.414 894.506L239.427 908.831L234.652 909.502L235.323 914.278L211.447 917.633ZM215.551 912.187L229.877 910.174L227.863 895.848L213.537 897.861L215.551 912.187ZM249.649 912.264L248.978 907.489L258.528 906.147L255.172 882.271L250.397 882.942L249.726 878.166L264.052 876.153L268.079 904.805L277.629 903.462L278.3 908.238L249.649 912.264ZM287.851 906.895L287.18 902.12L282.404 902.791L281.733 898.016L286.508 897.345L285.837 892.57L304.938 889.885L304.267 885.11L285.166 887.794L284.495 883.019L308.371 879.664L309.042 884.439L313.818 883.768L316.502 902.869L287.851 906.895ZM291.955 901.449L306.281 899.436L305.609 894.66L291.284 896.674L291.955 901.449Z" fill="#B1ECBB" fill-opacity="0.6"/>
<path d="M474.085 880.722L473.414 875.947L497.29 872.591L496.619 867.816L477.518 870.5L476.847 865.725L472.072 866.396L471.401 861.621L476.176 860.95L475.505 856.175L499.381 852.819L500.052 857.594L480.951 860.279L481.622 865.054L500.723 862.37L501.394 867.145L506.17 866.474L506.841 871.249L502.066 871.92L502.737 876.695L474.085 880.722ZM517.062 874.682L516.391 869.907L511.616 870.578L509.603 856.252L514.378 855.581L513.707 850.806L542.358 846.779L543.029 851.554L519.153 854.91L521.167 869.236L545.043 865.88L545.714 870.655L517.062 874.682ZM550.489 869.984L545.791 836.557L555.342 835.215L556.684 844.766L575.785 842.081L576.456 846.856L581.231 846.185L583.916 865.286L574.365 866.628L571.681 847.528L557.355 849.541L560.04 868.642L550.489 869.984ZM593.466 863.944L592.795 859.169L588.02 859.84L586.007 845.514L590.782 844.843L590.111 840.068L613.987 836.712L614.658 841.487L619.433 840.816L621.447 855.142L616.672 855.813L617.343 860.588L593.466 863.944ZM597.571 858.498L611.896 856.484L609.883 842.159L595.557 844.172L597.571 858.498ZM631.668 858.575L630.997 853.8L626.222 854.471L624.209 840.145L628.984 839.474L628.313 834.699L652.189 831.343L652.86 836.119L657.635 835.447L659.649 849.773L654.874 850.444L655.545 855.219L631.668 858.575ZM635.773 853.129L650.098 851.115L648.085 836.79L633.759 838.803L635.773 853.129ZM669.87 853.206L669.199 848.431L678.75 847.089L675.394 823.212L670.619 823.884L669.948 819.108L684.274 817.095L688.3 845.746L697.851 844.404L698.522 849.179L669.87 853.206ZM708.072 847.837L707.401 843.062L702.626 843.733L701.955 838.958L706.73 838.287L706.059 833.511L725.16 830.827L724.489 826.052L705.388 828.736L704.717 823.961L728.593 820.605L729.264 825.381L734.039 824.71L736.724 843.811L708.072 847.837ZM712.176 842.391L726.502 840.377L725.831 835.602L711.505 837.616L712.176 842.391Z" fill="#B1ECBB" fill-opacity="0.6"/>
<path d="M894.308 821.663L893.637 816.888L917.513 813.532L916.842 808.757L897.741 811.442L897.07 806.666L892.295 807.338L891.623 802.562L896.399 801.891L895.728 797.116L919.604 793.76L920.275 798.536L901.174 801.22L901.845 805.995L920.946 803.311L921.617 808.086L926.392 807.415L927.064 812.19L922.288 812.861L922.959 817.637L894.308 821.663ZM937.285 815.623L936.614 810.848L931.839 811.519L929.825 797.193L934.601 796.522L933.93 791.747L962.581 787.72L963.252 792.496L939.376 795.851L941.389 810.177L965.265 806.821L965.937 811.597L937.285 815.623ZM970.712 810.925L966.014 777.499L975.565 776.156L976.907 785.707L996.008 783.022L996.679 787.798L1001.45 787.127L1004.14 806.228L994.588 807.57L991.904 788.469L977.578 790.482L980.262 809.583L970.712 810.925ZM1013.69 804.885L1013.02 800.11L1008.24 800.781L1006.23 786.455L1011 785.784L1010.33 781.009L1034.21 777.654L1034.88 782.429L1039.66 781.758L1041.67 796.083L1036.89 796.755L1037.57 801.53L1013.69 804.885ZM1017.79 799.439L1032.12 797.426L1030.11 783.1L1015.78 785.113L1017.79 799.439ZM1051.89 799.516L1051.22 794.741L1046.44 795.412L1044.43 781.087L1049.21 780.415L1048.54 775.64L1072.41 772.285L1073.08 777.06L1077.86 776.389L1079.87 790.714L1075.1 791.386L1075.77 796.161L1051.89 799.516ZM1056 794.07L1070.32 792.057L1068.31 777.731L1053.98 779.744L1056 794.07ZM1090.09 794.147L1089.42 789.372L1098.97 788.03L1095.62 764.154L1090.84 764.825L1090.17 760.05L1104.5 758.036L1108.52 786.688L1118.07 785.346L1118.74 790.121L1090.09 794.147ZM1128.29 788.779L1127.62 784.003L1122.85 784.674L1122.18 779.899L1126.95 779.228L1126.28 774.453L1145.38 771.768L1144.71 766.993L1125.61 769.678L1124.94 764.902L1148.82 761.547L1149.49 766.322L1154.26 765.651L1156.95 784.752L1128.29 788.779ZM1132.4 783.332L1146.72 781.319L1146.05 776.544L1131.73 778.557L1132.4 783.332Z" fill="#B1ECBB" fill-opacity="0.6"/>
</g>
</g>
<defs>
<clipPath id="clip0">
<rect width="1920" height="1080" fill="white"/>
</clipPath>
</defs>
</svg>
