<svg width="26" height="26" viewBox="0 0 26 26" fill="none" xmlns="http://www.w3.org/2000/svg">
<g clip-path="url(#clip0)">
<path d="M2.14373 18.7659V7.47429C1.58508 7.45226 1.04255 7.43452 0.525098 7.41867C0.237569 7.4099 0 7.64059 0 7.92827V21.0807C0 21.3516 0.211518 21.5752 0.482071 21.5897C3.17695 21.7349 6.72748 21.8898 10.0727 22.7C7.5762 20.776 4.84365 19.9068 2.76773 19.5173C2.40577 19.4496 2.14373 19.1335 2.14373 18.7659Z" fill="#373737" fill-opacity="0.2"/>
<path d="M23.8563 7.3815V18.7659C23.8563 19.1335 23.5943 19.4496 23.2323 19.5174C21.1564 19.9069 18.4238 20.7761 15.9273 22.7001C19.2674 21.891 22.8089 21.7357 25.518 21.5897C25.7885 21.5752 26 21.3516 26 21.0807V7.87265C26 7.59149 25.7726 7.36325 25.4914 7.36284C25.0392 7.36218 24.4833 7.36641 23.8563 7.3815Z" fill="#373737" fill-opacity="0.2"/>
<path d="M3.67316 3.80971V18.1414C6.20127 18.6971 9.43955 19.9089 12.2353 22.5339V7.49366C10.4612 5.26316 7.17245 3.84193 4.27738 3.30857C3.96324 3.25071 3.67316 3.49027 3.67316 3.80971ZM10.0274 15.4864C9.80737 15.8462 9.33677 15.9604 8.97614 15.7403C8.56269 15.4879 7.50433 14.8848 6.59739 14.7313C6.18088 14.661 5.90049 14.2664 5.97084 13.8499C6.0412 13.4334 6.43578 13.153 6.85229 13.2233C7.97947 13.4135 9.16629 14.064 9.77296 14.4352C10.1334 14.6554 10.2471 15.1259 10.0274 15.4864ZM10.0447 10.6519C9.80345 10.9985 9.32566 11.0829 8.98022 10.8421C8.48214 10.4954 7.55939 10.0325 6.59739 9.86986C6.18088 9.7995 5.90049 9.40491 5.97084 8.9884C6.0412 8.57189 6.43578 8.2915 6.85229 8.36185C8.06257 8.56629 9.19688 9.12911 9.85453 9.58742C10.2012 9.82856 10.2863 10.3052 10.0447 10.6519Z" fill="#373737" fill-opacity="0.2"/>
<path d="M21.7227 3.30862C18.8416 3.83999 15.5372 5.25867 13.7647 7.49365V22.5339C16.5605 19.9089 19.7988 18.6971 22.3269 18.1414V3.80981C22.3269 3.49037 22.0368 3.25071 21.7227 3.30862ZM19.4026 14.7313C18.4957 14.8848 17.4373 15.4879 17.0239 15.7402C16.6632 15.9605 16.1926 15.8461 15.9727 15.4864C15.7529 15.1259 15.8666 14.6554 16.2271 14.4351C16.8337 14.064 18.0206 13.4135 19.1477 13.2233C19.5642 13.1525 19.9588 13.4334 20.0292 13.8499C20.0995 14.2664 19.8191 14.661 19.4026 14.7313ZM19.4026 9.86985C18.4406 10.0325 17.5179 10.4954 17.0198 10.842C16.6747 11.0827 16.1968 10.9988 15.9553 10.6519C15.7137 10.3052 15.7988 9.82855 16.1455 9.58742C16.8031 9.1291 17.9375 8.56628 19.1477 8.36185C19.5642 8.29099 19.9588 8.57189 20.0292 8.9884C20.0995 9.40491 19.8191 9.79949 19.4026 9.86985Z" fill="#373737" fill-opacity="0.2"/>
</g>
<defs>
<clipPath id="clip0">
<rect width="26" height="26" fill="white"/>
</clipPath>
</defs>
</svg>
