<svg width="688" height="88" viewBox="0 0 688 88" fill="none" xmlns="http://www.w3.org/2000/svg">
<path d="M0 87.5V75H62.5V62.5H12.5V50H0V37.5H12.5V25H75V37.5H25V50H75V62.5H87.5V75H75V87.5H0ZM112.5 87.5V75H100V37.5H112.5V25H187.5V37.5H125V75H187.5V87.5H112.5ZM200 87.5V0H225V25H275V37.5H287.5V87.5H262.5V37.5H225V87.5H200ZM312.5 87.5V75H300V37.5H312.5V25H375V37.5H387.5V75H375V87.5H312.5ZM325 75H362.5V37.5H325V75ZM412.5 87.5V75H400V37.5H412.5V25H475V37.5H487.5V75H475V87.5H412.5ZM425 75H462.5V37.5H425V75ZM512.5 87.5V75H537.5V12.5H525V0H562.5V75H587.5V87.5H512.5ZM612.5 87.5V75H600V62.5H612.5V50H662.5V37.5H612.5V25H675V37.5H687.5V87.5H612.5ZM625 75H662.5V62.5H625V75Z" fill="#C5F2CD" fill-opacity="0.6"/>
</svg>
