<svg width="26" height="26" viewBox="0 0 26 26" fill="none" xmlns="http://www.w3.org/2000/svg">
<path d="M23.0961 4.15299C21.8537 2.76464 20.149 2 18.2956 2C16.9102 2 15.6415 2.45127 14.5245 3.34118C13.9609 3.79038 13.4503 4.33995 13 4.98139C12.5499 4.34014 12.0391 3.79038 11.4753 3.34118C10.3585 2.45127 9.08978 2 7.70441 2C5.85101 2 4.14612 2.76464 2.90375 4.15299C1.67621 5.52511 1 7.39963 1 9.4315C1 11.5228 1.75641 13.4371 3.38037 15.4562C4.83313 17.2622 6.92108 19.0956 9.33899 21.2186C10.1646 21.9436 11.1005 22.7654 12.0722 23.6408C12.3289 23.8725 12.6583 24 13 24C13.3415 24 13.6711 23.8725 13.9274 23.6412C14.8992 22.7656 15.8356 21.9434 16.6616 21.218C19.0791 19.0954 21.1671 17.2622 22.6198 15.456C24.2438 13.4371 25 11.5228 25 9.43131C25 7.39963 24.3238 5.52511 23.0961 4.15299Z" stroke="#373737" stroke-width="1.5"/>
</svg>
