<svg width="30" height="30" viewBox="0 0 30 30" fill="none" xmlns="http://www.w3.org/2000/svg">
<path d="M0.626303 5.57555C4.74369 9.06252 11.9684 15.1972 14.0919 17.11C14.3769 17.3681 14.6827 17.4994 15.0001 17.4994C15.3168 17.4994 15.622 17.3694 15.9064 17.1124C18.0317 15.1978 25.2564 9.06252 29.3739 5.57555C29.6302 5.35887 29.6693 4.97801 29.4618 4.71311C28.982 4.10098 28.2667 3.75 27.5 3.75H2.50007C1.73349 3.75 1.01812 4.10098 0.538413 4.71316C0.330873 4.97801 0.369955 5.35887 0.626303 5.57555Z" fill="#FDFDFD"/>
<path d="M29.6375 7.46501C29.4159 7.36188 29.1553 7.39786 28.971 7.55536C24.4049 11.4262 18.5773 16.3878 16.7438 18.0399C15.7147 18.9689 14.2864 18.9689 13.255 18.0387C11.3006 16.2779 4.75641 10.7145 1.02902 7.5553C0.843457 7.3978 0.582246 7.36305 0.36252 7.46495C0.141621 7.56755 0 7.7885 0 8.03202V23.7498C0 25.1286 1.12119 26.2498 2.50002 26.2498H27.5C28.8788 26.2498 30 25.1286 30 23.7498V8.03202C30 7.7885 29.8584 7.56696 29.6375 7.46501Z" fill="#FDFDFD"/>
</svg>
